<?xml version="1.0" encoding="UTF-8"?>
<svg xmlns="http://www.w3.org/2000/svg" width="1024" height="1024" viewBox="0 0 1024 1024">
  <defs>
    <linearGradient id="cream" x1="0" y1="0" x2="0" y2="1"><stop stop-color="#fff6df"/><stop offset="1" stop-color="#ead2a5"/></linearGradient>
    <linearGradient id="coral" x1="0" y1="0" x2="0" y2="1"><stop stop-color="#f6a18d"/><stop offset="1" stop-color="#d86f64"/></linearGradient>
    <linearGradient id="navy" x1="0" y1="0" x2="0" y2="1"><stop stop-color="#2f4566"/><stop offset="1" stop-color="#192b48"/></linearGradient>
    <linearGradient id="cup" x1="0" y1="0" x2="0" y2="1"><stop stop-color="#f7e4c8"/><stop offset="1" stop-color="#d8a679"/></linearGradient>
    <linearGradient id="park" x1="0" y1="0" x2="0" y2="1"><stop stop-color="#e4f0d9"/><stop offset="1" stop-color="#9fc7a6"/></linearGradient>
    <linearGradient id="cafe" x1="0" y1="0" x2="0" y2="1"><stop stop-color="#f9e8cf"/><stop offset="1" stop-color="#caa784"/></linearGradient>
    <linearGradient id="creamBg" x1="0" y1="0" x2="1" y2="1"><stop stop-color="#fff8e6"/><stop offset="1" stop-color="#f4e6cc"/></linearGradient>
  </defs>

  <rect width="1024" height="1024" fill="url(#cafe)"/>
  <rect x="116" y="112" width="310" height="410" rx="30" fill="#fff0cf" opacity=".72"/>
  <path d="M272 112 V522 M116 310 H426" stroke="#d9b184" stroke-width="18" opacity=".45"/>
  <circle cx="766" cy="270" r="136" fill="#d7ad7d" opacity=".22"/><circle cx="864" cy="390" r="182" fill="#fff1d1" opacity=".2"/>
  <path d="M0 804 Q250 742 512 800 Q760 742 1024 804 V1024 H0 Z" fill="#9e765c" opacity=".32"/>

</svg>